<mxfile host="app.diagrams.net" modified="2023-06-01T18:53:41.530Z" agent="Mozilla/5.0 (X11; Linux x86_64; rv:109.0) Gecko/20100101 Firefox/113.0" etag="9llokfLznYCDy4cE4yhP" version="21.3.6" type="github">
  <diagram name="Seite-1" id="VVl7G3nJUZ-hltfTkRG-">
    <mxGraphModel dx="988" dy="517" grid="1" gridSize="10" guides="1" tooltips="1" connect="1" arrows="1" fold="1" page="1" pageScale="1" pageWidth="827" pageHeight="1169" math="0" shadow="0">
      <root>
        <mxCell id="0" />
        <mxCell id="1" parent="0" />
        <mxCell id="V3XkAwLurtoeMm_z9-e1-20" value="Internet (WAN)" style="rounded=0;whiteSpace=wrap;html=1;container=1;recursiveResize=0;collapsible=0;labelPosition=center;verticalLabelPosition=middle;align=center;verticalAlign=top;fillColor=none;strokeColor=#3584e4;fontColor=#3584e4;fontStyle=1;strokeWidth=1;" vertex="1" parent="1">
          <mxGeometry x="440" y="200" width="240" height="360" as="geometry" />
        </mxCell>
        <mxCell id="V3XkAwLurtoeMm_z9-e1-15" value="3rd Party&lt;br&gt;Server" style="sketch=0;aspect=fixed;pointerEvents=1;shadow=0;dashed=0;html=1;strokeColor=none;labelPosition=right;verticalLabelPosition=middle;verticalAlign=middle;align=left;fillColor=#000000;shape=mxgraph.mscae.enterprise.server_generic" vertex="1" parent="V3XkAwLurtoeMm_z9-e1-20">
          <mxGeometry x="91.2" y="120" width="57.6" height="120" as="geometry" />
        </mxCell>
        <mxCell id="V3XkAwLurtoeMm_z9-e1-19" value="Home Network (LAN)" style="rounded=0;whiteSpace=wrap;html=1;container=1;recursiveResize=0;collapsible=0;labelPosition=center;verticalLabelPosition=middle;align=center;verticalAlign=top;fillColor=none;strokeColor=#3584e4;fontColor=#3584e4;fontStyle=1;strokeWidth=1;" vertex="1" parent="1">
          <mxGeometry x="80" y="200" width="280" height="360" as="geometry" />
        </mxCell>
        <mxCell id="V3XkAwLurtoeMm_z9-e1-25" style="edgeStyle=orthogonalEdgeStyle;rounded=0;orthogonalLoop=1;jettySize=auto;html=1;entryX=0.5;entryY=0;entryDx=0;entryDy=0;entryPerimeter=0;strokeColor=#33d17a;strokeWidth=2;" edge="1" parent="V3XkAwLurtoeMm_z9-e1-19" source="V3XkAwLurtoeMm_z9-e1-6" target="V3XkAwLurtoeMm_z9-e1-7">
          <mxGeometry relative="1" as="geometry" />
        </mxCell>
        <mxCell id="V3XkAwLurtoeMm_z9-e1-6" value="Handy" style="sketch=0;pointerEvents=1;shadow=0;dashed=0;html=1;strokeColor=none;fillColor=#000000;labelPosition=left;verticalLabelPosition=middle;verticalAlign=middle;outlineConnect=0;align=right;shape=mxgraph.office.devices.cell_phone_generic;" vertex="1" parent="V3XkAwLurtoeMm_z9-e1-19">
          <mxGeometry x="100" y="50" width="40" height="60" as="geometry" />
        </mxCell>
        <mxCell id="V3XkAwLurtoeMm_z9-e1-7" value="Smart Device" style="shape=mxgraph.signs.tech.washing_machine;html=1;pointerEvents=1;fillColor=#000000;strokeColor=none;verticalLabelPosition=middle;verticalAlign=middle;align=right;sketch=0;labelPosition=left;" vertex="1" parent="V3XkAwLurtoeMm_z9-e1-19">
          <mxGeometry x="80" y="230" width="80" height="100" as="geometry" />
        </mxCell>
        <mxCell id="V3XkAwLurtoeMm_z9-e1-3" value="Wifi Router" style="points=[[0.03,0.36,0],[0.18,0,0],[0.5,0.34,0],[0.82,0,0],[0.97,0.36,0],[1,0.67,0],[0.975,0.975,0],[0.5,1,0],[0.025,0.975,0],[0,0.67,0]];verticalLabelPosition=bottom;sketch=0;html=1;verticalAlign=top;aspect=fixed;align=center;pointerEvents=1;shape=mxgraph.cisco19.wireless_access_point;fillColor=#000000;strokeColor=none;" vertex="1" parent="V3XkAwLurtoeMm_z9-e1-19">
          <mxGeometry x="190" y="130" width="80" height="80" as="geometry" />
        </mxCell>
        <mxCell id="V3XkAwLurtoeMm_z9-e1-9" value="" style="html=1;verticalLabelPosition=bottom;align=center;labelBackgroundColor=#ffffff;verticalAlign=top;strokeWidth=2;strokeColor=#000000;shadow=0;dashed=0;shape=mxgraph.ios7.icons.wifi;pointerEvents=1" vertex="1" parent="V3XkAwLurtoeMm_z9-e1-19">
          <mxGeometry x="205" y="110" width="50" height="40" as="geometry" />
        </mxCell>
        <mxCell id="V3XkAwLurtoeMm_z9-e1-16" style="edgeStyle=orthogonalEdgeStyle;rounded=0;orthogonalLoop=1;jettySize=auto;html=1;entryX=0.5;entryY=0;entryDx=0;entryDy=0;entryPerimeter=0;fillColor=#d5e8d4;strokeColor=#e01b24;strokeWidth=2;" edge="1" parent="1" source="V3XkAwLurtoeMm_z9-e1-6" target="V3XkAwLurtoeMm_z9-e1-15">
          <mxGeometry relative="1" as="geometry" />
        </mxCell>
        <mxCell id="V3XkAwLurtoeMm_z9-e1-17" style="edgeStyle=orthogonalEdgeStyle;rounded=0;orthogonalLoop=1;jettySize=auto;html=1;exitX=0.5;exitY=1;exitDx=0;exitDy=0;exitPerimeter=0;fillColor=#f8cecc;strokeColor=#e01b24;strokeWidth=2;" edge="1" parent="1" source="V3XkAwLurtoeMm_z9-e1-15" target="V3XkAwLurtoeMm_z9-e1-7">
          <mxGeometry relative="1" as="geometry" />
        </mxCell>
        <mxCell id="V3XkAwLurtoeMm_z9-e1-26" value="How it is typically implemented - Connection via 3rd party server at some cloud provider" style="endArrow=none;html=1;rounded=0;strokeColor=#e01b24;labelPosition=right;verticalLabelPosition=middle;align=left;verticalAlign=middle;strokeWidth=2;" edge="1" parent="1">
          <mxGeometry x="1" y="10" width="50" height="50" relative="1" as="geometry">
            <mxPoint x="130" y="600" as="sourcePoint" />
            <mxPoint x="190" y="600" as="targetPoint" />
            <mxPoint x="10" y="10" as="offset" />
          </mxGeometry>
        </mxCell>
        <mxCell id="V3XkAwLurtoeMm_z9-e1-27" value="How it should be implemented - Direct connection to device without need for internet connection" style="endArrow=none;html=1;rounded=0;strokeColor=#33d17a;labelPosition=right;verticalLabelPosition=middle;align=left;verticalAlign=middle;strokeWidth=2;" edge="1" parent="1">
          <mxGeometry x="1" y="10" width="50" height="50" relative="1" as="geometry">
            <mxPoint x="130" y="621" as="sourcePoint" />
            <mxPoint x="190" y="621" as="targetPoint" />
            <mxPoint x="10" y="10" as="offset" />
          </mxGeometry>
        </mxCell>
      </root>
    </mxGraphModel>
  </diagram>
</mxfile>
